<svg xmlns="http://www.w3.org/2000/svg" viewBox="0 0 24 24">
  <path d="M6.75 3A3.75 3.75 0 0 0 3 6.75v10.5A3.75 3.75 0 0 0 6.75 21h10.5A3.75 3.75 0 0 0 21 17.25V6.75A3.75 3.75 0 0 0 17.25 3H6.75ZM4.5 6.75A2.25 2.25 0 0 1 6.75 4.5h10.5a2.25 2.25 0 0 1 2.25 2.25v10.5a2.25 2.25 0 0 1-2.25 2.25H6.75a2.25 2.25 0 0 1-2.25-2.25V6.75Zm3 1.5c0-.41.34-.75.75-.75h7.5a.75.75 0 0 1 0 1.5h-7.5a.75.75 0 0 1-.75-.75Zm0 3.75c0-.41.34-.75.75-.75h4.5a.75.75 0 0 1 0 1.5h-4.5A.75.75 0 0 1 7.5 12Zm0 3.75c0-.41.34-.75.75-.75h7.5a.75.75 0 0 1 0 1.5h-7.5a.75.75 0 0 1-.75-.75Z" />
</svg>
